<svg version="1.2" xmlns="http://www.w3.org/2000/svg" viewBox="46.5 92 64 58" width="100%" height="100%">
	<style>
		.s0 { fill: #f39c12 } 
	</style>
	<g id="圖層 1">
		<g id="&lt;Group&gt;">
			<path id="&lt;Path&gt;" class="s0" d="m87.62 122.48c0.32 3.12 2.81 5.67 6.05 5.94 3.66 0.31 6.88-2.41 7.19-6.07 0.31-3.66-2.4-6.88-6.07-7.19q-0.72-0.06-1.41 0.03c-1.53 0.02-3.83-0.13-6.22-1.67-2.94-1.89-3.81-5.07-4.06-6.65q0-0.09-0.01-0.18-0.03-0.36-0.1-0.71 0-0.01 0-0.02c-0.65-3.29-3.68-5.63-7.09-5.34-3.03 0.25-5.41 2.5-5.97 5.34q0 0.02 0 0.05-0.08 0.42-0.11 0.86c-0.25 1.58-1.12 4.75-4.06 6.65-2.39 1.54-4.69 1.69-6.22 1.67q-0.69-0.09-1.41-0.03c-3.66 0.31-6.38 3.53-6.07 7.19 0.31 3.66 3.53 6.38 7.19 6.07 3.24-0.27 5.73-2.82 6.06-5.94q0 0 0 0 0-0.01 0-0.02 0.02-0.24 0.03-0.48c0.15-1.04 0.84-3.4 3.13-5.67 2.03-2.02 4.99-2.58 7.84-2.41q0.15 0 0.31-0.01l-0.01 0.01c2.85-0.17 5.81 0.39 7.84 2.41 2.29 2.27 2.98 4.63 3.13 5.67q0.01 0.24 0.03 0.48 0 0.01 0 0.02 0 0 0.01 0z"/>
			<path id="&lt;Path&gt;" class="s0" d="m76.05 120.46c-3.03 0.26-5.41 2.51-5.97 5.35v-0.01q0 0.02 0 0.05-0.08 0.43-0.11 0.86c-0.25 1.58-1.12 4.76-4.06 6.65-2.39 1.55-4.69 1.7-6.22 1.67q-0.69-0.09-1.41-0.03 0 0 0 0c-3.66 0.31-6.38 3.53-6.07 7.19 0.31 3.67 3.53 6.38 7.19 6.07 3.24-0.27 5.73-2.82 6.06-5.93q0 0 0 0 0-0.01 0-0.02 0.02-0.24 0.03-0.48c0.15-1.04 0.84-3.41 3.13-5.67 2.03-2.02 4.99-2.59 7.84-2.41q0.35 0 0.71-0.03c3.66-0.31 6.38-3.53 6.07-7.19-0.31-3.66-3.53-6.38-7.19-6.07z"/>
			<path id="&lt;Path&gt;" class="s0" d="m94.94 135c-3.66-0.31-6.88 2.41-7.19 6.07-0.31 3.66 2.41 6.88 6.07 7.19 3.66 0.31 6.88-2.4 7.19-6.07 0.31-3.66-2.4-6.88-6.07-7.19z"/>
		</g>
	</g>
</svg>